# xmcd
#
# Track frame offsets:
#	150
#	16577
#	29890
#	49827
#	74640
#	87740
#	101972
#	117895
#	138235
#	153140
#
# Disc length: 2266 seconds
#
# Revision: 0
# Processed by: cddbd v1.5.2PL0 Copyright (c) Steve Scherf et al.
# Submitted via: audiograbber 1.83.01
#
DISCID=8a08d80a
DTITLE=Teddy Edelmann - "Helt Ærligt"
DYEAR=1900
DGENRE=Country
TTITLE0=GIV MIG STYRKE, GIV MIG MOD
TTITLE1=HEJ BARTENDER
TTITLE2=I DRØMMENS STILLE VERDEN
TTITLE3=NÅR JEG SER DIG IGEN
TTITLE4=LEJESOLDATEN
TTITLE5=BERØMMELSENS PRIS
TTITLE6=KVINDE, LIVFULDE KVINDE
TTITLE7=DU KENDER DET IGEN
TTITLE8=DENGANG
TTITLE9=VI SKAL HOLDE OS TIL LIVET
EXTD=
EXTT0=
EXTT1=
EXTT2=
EXTT3=
EXTT4=
EXTT5=
EXTT6=
EXTT7=
EXTT8=
EXTT9=
PLAYORDER=
